<?xml version="1.0" encoding="UTF-8"?>
<!DOCTYPE svg PUBLIC "-//W3C//DTD SVG 1.1//EN" "http://www.w3.org/Graphics/SVG/1.1/DTD/svg11.dtd">
<!-- Creator: CorelDRAW -->
<svg xmlns="http://www.w3.org/2000/svg" xml:space="preserve" width="1900mm" height="800mm" version="1.1" shape-rendering="geometricPrecision" text-rendering="geometricPrecision" image-rendering="optimizeQuality" fill-rule="evenodd" clip-rule="evenodd"
viewBox="0 0 190000 80000"
 xmlns:xlink="http://www.w3.org/1999/xlink"
 xmlns:xodm="http://www.corel.com/coreldraw/odm/2003">
 <g id="Layer_x0020_1">
  <metadata id="CorelCorpID_0Corel-Layer"/>
  <path id="_3D_Back" fill="lime" stroke="red" stroke-width="7.62" stroke-miterlimit="22.9256" d="M161681.52 79768.75l-25652.5 35 0 -1950 400 -50 -400 -50 -5 -29072.5 400 -62.5 -402.5 -37.5 -1092.5 -15822.49 640 -200 625 -227.51 602.5 -277.5 647.5 -402.49 630 -517.5 442.5 -492.51 390 -539.99 347.5 -567.51 285 -600 195 -585 137.5 -605 175 -1177.49 402.5 12.49 -385 -112.49 95 -577.51 192.5 -1952.5 92.5 -1957.5 -32.5 -1450 -85 -1405 397.5 -72.5 -402.5 -27.5 -85 -1357.5 395 -87.5 -402.5 -12.5 -260 -1929.99 -337.5 -1977.51 -352.5 -1570 -390 -1597.5 13690 -5247.5 882.5 1082.5 695 600 892.5 542.5 955 442.5 1257.5 407.5 1262.5 285 1582.5 212.5 1522.5 142.5 50 405 50 -405 1525 -142.5 1580 -212.5 1265 -285 1255 -407.5 957.5 -442.5 892.5 -542.5 692.5 -600 885 -1082.5 13690 5247.5 -392.5 1602.5 -350 1562.5 -337.5 1977.5 -260 1932.5 -405 10 397.5 90 -85 1357.5 -402.5 27.5 397.5 72.5 -85 1402.5 -32.5 1452.5 92.5 1957.5 195 1950 92.5 567.5 -387.5 112.51 402.5 -12.51 177.5 1190 137.5 602.5 195 587.5 285 597.5 347.5 567.51 390 540 442.5 492.5 632.5 520 645 402.49 912.5 395 955 307.51 -1090 15822.49 -402.5 37.5 400 62.5 -5 29072.5 -400 50 400 50 0 1950 -25652.5 -32.5zm-25073.61 -757.43l-378.89 0 0 -114.92 258.42 -67.91 -258.42 -67.12 0 -115.18 378.89 0 0 70.91 -298.28 0.26 298.28 74.71 0 73.73 -298.28 74.35 298.28 0.26 0 70.91z"/>
  <path id="_3D_Collar" fill="lime" stroke="red" stroke-width="7.62" stroke-miterlimit="22.9256" d="M93246.68 2496.25l-2.5 2150 -9950 -10 -50 -400 -50 400 -9200 -10 -50 -400 -50 400 -14600 -15 -50 -400 -50 400 -15350 -15 2.5 -2150 400 -50 -400 -50 2.5 -2150 15350 17.5 50 400 50 -400 14600 15 50 400 50 -400 9200 7.5 50 400 50 -400 9950 10 -2.5 2150 -400 50 400 50zm-577.43 -1358.24l378.89 0.44 -0.13 114.92 -258.5 67.61 258.34 67.42 -0.13 115.18 -378.89 -0.44 0.08 -70.91 298.28 0.08 -298.19 -75.05 0.08 -73.73 298.37 -74.01 -298.28 -0.6 0.08 -70.91z"/>
  <path id="_3D_LeftSleeve" fill="lime" stroke="red" stroke-width="7.62" stroke-miterlimit="22.9256" d="M94206.6 22430.24l2105 7542.5 410 -7.51 -395 105 0 1950 37600 -27.5 0 -1950 -397.5 -104.99 410 7.49 2072.5 -7415 -1620 -835 -897.5 -512.5 -860 -565 -525 -427.5 -510 -452.49 -972.5 -952.5 -1015 -1075 -802.5 -895.01 -335 225 270 -300 -1675 -1952.5 -830 -940 -860 -900 -1007.5 -895 -1017.5 -805 -277.5 287.5 197.5 -347.5 -600 -427.5 -627.5 -395 -245 320 157.5 -370 -865 -470 -937.5 -430 -625 -247.5 -1267.5 -405 -600 -125 -610 -72.5 -617.5 -25 -1150 -10 -35 400 -65 -397.5 -737.5 67.5 -772.5 107.5 -1110 245 -1090 310 -1082.5 380 -917.5 432.5 -892.5 485 -757.5 537.5 -842.5 545 -832.5 625 -932.5 812.5 -892.5 860 -857.5 900 -795 887.51 270 297.49 -335 -222.49 -1177.5 1439.99 -1232.5 1457.51 -835 809.99 -890 752.5 -905 697.51 -472.5 320 -492.5 287.49 -580 247.5 -610 225 -1207.5 390.01zm39141.11 8770.06l378.89 0 0 -114.92 -258.42 -67.91 258.42 -67.12 0 -115.18 -378.89 0 0 70.91 298.28 0.26 -298.28 74.71 0 73.73 298.28 74.35 -298.28 0.26 0 70.91z"/>
  <path id="_3D_RightSleeve" fill="lime" stroke="red" stroke-width="7.62" stroke-miterlimit="22.9256" d="M43373.47 22430.24l-2105 7542.5 -410 -7.51 395 105 0 1950 -37600 -27.5 0 -1950 397.5 -104.99 -410 7.49 -2072.5 -7415 1620 -835 897.5 -512.5 860 -565 525 -427.5 510 -452.49 972.5 -952.5 1015 -1075 802.5 -895.01 335 225 -270 -300 1675 -1952.5 830 -940 860 -900 1007.5 -895 1017.5 -805 277.5 287.5 -197.5 -347.5 600 -427.5 627.5 -395 245 320 -157.5 -370 865 -470 937.5 -430 625 -247.5 1267.5 -405 600 -125 610 -72.5 617.5 -25 1150 -10 35 400 65 -397.5 737.5 67.5 772.5 107.5 1110 245 1090 310 1082.5 380 917.5 432.5 892.5 485 757.5 537.5 842.5 545 832.5 625 932.5 812.5 892.5 860 857.5 900 795 887.51 -270 297.49 335 -222.49 1177.5 1439.99 1232.5 1457.51 835 809.99 890 752.5 905 697.51 472.5 320 492.5 287.49 580 247.5 610 225 1207.5 390.01zm-39141.11 8770.06l-378.89 0 0 -114.92 258.42 -67.91 -258.42 -67.12 0 -115.18 378.89 0 0 70.91 -298.28 0.26 298.28 74.71 0 73.73 -298.28 74.35 298.28 0.26 0 70.91z"/>
  <path id="_3D_Prieksa" fill="#996633" stroke="red" stroke-width="7.62" stroke-miterlimit="22.9256" d="M68549.18 79776.25l-25652.5 27.5 -2.5 -1950 400 -50 -400 -50 -2.5 -28910 400 -65 -405 -35 -1152.5 -15997.5 1265 -335 647.5 -202.5 537.5 -227.5 550 -367.5 485 -455 637.5 -779.99 487.5 -772.5 172.5 -492.51 112.5 -512.5 200 -1117.49 182.5 -1127.51 95 -1107.5 400 -12.49 -392.5 -87.51 217.5 -2002.5 30 -2042.5 -120 -2050 -117.5 -1267.5 -152.5 -1260 -200 -1255 -262.5 -1240 -477.5 -1730 -550 -1712.5 14075 -5392.5 205 1442.5 395 1902.5 507.5 1877.5 280 892.5 347.5 855 435 850.01 520 802.49 557.5 660 627.5 592.5 825 622.5 890 532.5 877.5 397.5 912.5 302.51 800 157.5 760 107.49 50 405 50 -405 760 -107.49 800 -157.5 912.5 -305.01 875 -395 890 -532.5 827.5 -622.5 627.5 -592.5 555 -660 520 -802.49 435 -852.51 350 -852.5 280 -892.5 347.5 -1250 305 -1260 247.5 -1270 205 -1442.5 14075 5390 -550 1712.5 -477.51 1730.01 -332.5 1657.49 -234.99 1677.5 -165 1687.5 -117.5 2052.5 30 2042.5 214.99 1992.51 -392.49 87.49 402.5 12.51 95 1114.99 184.99 1140 197.51 1105 112.49 512.51 172.51 492.5 487.49 775 637.5 777.49 315 310.01 345.01 280 375 232.49 537.49 227.51 647.5 204.99 1265.01 332.5 -1152.5 15997.5 -402.5 35 400 65.01 -2.5 28909.99 -400 50 400 50 0 1950 -25652.5 -25zm-25074.63 -765.67l-378.89 0.48 -0.14 -114.92 258.33 -68.24 -258.51 -66.79 -0.14 -115.18 378.89 -0.48 0.09 70.91 -298.28 0.64 298.37 74.33 0.1 73.73 -298.19 74.73 298.28 -0.12 0.09 70.91z"/>
  <path id="_3D_Kakpuce" fill="#2B2A29" d="M68883.85 47156.65c-814.2,2208.98 -1513.13,4728.77 -919.95,7086.84 75.23,299.1 311.55,736.73 269.6,972.14l-175.42 340.72c-389.99,927.77 -658.25,3082.06 -636.25,4146.49 24.92,1205.42 150.68,2343.18 65.87,3556.07 -137.95,-1209.77 -480.33,-2283.87 -792,-3451.38 -352.63,-1320.95 -429.95,-2626.34 -793.89,-3897.46 -274.31,-958.07 -455.2,-469.96 -77.68,-1419.34 115.63,-290.8 220.46,-683.15 306.87,-988.36 747.31,-2639.63 1335.98,-3968.56 2752.85,-6345.72zm-16472.37 3683.19c-334.86,5414.75 1244.96,8409.47 5096.05,12125.04 2308.94,2227.69 6456.73,4900 9754.89,4857.04 110.18,-1.44 750.12,-95.54 768.72,-92.78l235.96 121.3c1162.76,470.13 3052.45,131.65 4172.65,-375.18 5148.24,-2329.3 9938.98,-11377.71 12250.18,-16370.84 -2010.91,5089.42 -5082.81,11712.69 -8861.77,15667.02 -2323.43,2431.25 -4112.45,3258.46 -7415.9,3690.18 -0.01,0 -648.98,119.8 -648.98,119.8 -6.8,-0.35 -1118.84,-383.65 -1226,-419.58 -3772.73,-1265.12 -7088.81,-3564.64 -9708.88,-6550.4 -3611.9,-4116.03 -5078.34,-7244.38 -4416.92,-12771.6zm8201.9 529.16c-1236.74,-872.9 -1760.31,-1949.78 -2093.2,-3389.66 -197.8,-855.57 -192.62,-1480.97 -314.05,-2289.81l-131.16 -638.77c739.97,-828.4 1238.88,-1378.47 2048.24,-2115.72 701.81,-639.28 1869.94,-1764.58 2895.71,-2153.27l-24.34 -128.16c44.03,86.92 33.66,66.48 58.55,115.48 161.38,-58.75 319.07,-98.94 470.61,-115.48 -138,49.03 -274.81,120.3 -409.49,209.43 201.46,271.25 356.93,491.27 530.35,795.64 965.27,1694.13 820.61,2839.95 1395.06,4487.22 -474.44,412.92 -448.33,413.17 -799.99,919.05 -948.55,1364.54 -1644.3,2325.73 -2832.55,3510.31 651.64,-1184.03 1394.15,-2983.82 1210.41,-4355.61 -50.9,-380.09 -57.37,-309.95 -257.03,-662.71 631.14,-541.47 857.82,-1103.11 994.53,-1918.12 184.34,-1099.07 13.24,-1731.98 -302.83,-2733.33 -928.57,654.98 -1748.28,2137.59 -2148.63,3023.34 -353.18,781.41 -432.61,1054.17 -242.11,1926.9l-387.71 311.1c-386.2,413.44 -630.59,1426.46 -681.68,1985.76 -116.78,1278.31 172.34,2250.25 1021.31,3216.41zm13890.32 529.15c-2233.42,-1285.7 -1819.29,-2116.72 -2463.97,-4252.2l-138.26 -417.78c-172.62,-432.98 -300.77,-397.39 -162.7,-857.72l226.37 -420.69c563.36,-1176.44 702.24,-2014.59 1555.07,-3147.31 334.36,-444.1 767.09,-959.72 1274.17,-1242.48 -181.58,-313.33 -411.31,-674.26 -555.26,-906.36 314.34,296.54 814.57,739.88 1088.18,1040.95 935.08,1028.9 988.62,2693.78 1464.36,3892.93l195.55 409.22c21.43,234.86 -378.34,884.8 -498.48,1167.75 -658.66,1551.25 -1054.83,3075.9 -1852.74,4601.4 310.47,-1380.7 453.94,-3834.74 22.02,-5172.55 -71.99,-222.97 -259.47,-524.91 -208.24,-749.64l234.4 -345.46c449.98,-818.41 733.42,-2661.7 318.83,-3549.71 -44.65,-95.62 -108.26,-213.52 -181.31,-341.12l-254.92 350.37c-763.44,1149.14 -1063.81,2830.71 -590.69,4140.51l177.14 389.75 6.97 384.63 -219.39 388.61c-99.57,214.71 -207.57,587.24 -269.85,815.35 -480.57,1760.17 -502.95,2492.94 832.75,3821.55zm-25531.72 -4497.81c239.14,-1270.2 1401.56,-4201.6 1898.9,-5536.49 1222.33,-3280.8 2558.01,-6624.88 3699.3,-9922.8 642.52,-1856.65 960.85,-3943.58 1597.71,-5875.96 296.72,-900.31 945.27,-2613.67 1763.63,-3127.72 286.72,-180.1 640.27,-84.17 761.89,242.5 109.08,293.01 293.86,3993.76 429.65,4750.16 146.3,814.9 544.12,2113.2 785.82,2958.72 238.03,832.66 892.93,3096.89 1366.86,4075.76 2141.49,-183.08 4129.1,-407.89 6311.87,-478.21 115.39,-3.72 988.4,-71.94 995.94,-71.53 66.71,3.54 1708.92,416.4 1940.26,466.58 1195.49,259.28 2720.7,567.1 4026.56,612.68 409.45,-1801.4 716.85,-3634.06 1155.55,-5449.74 669.22,-2769.76 840.15,-3566.78 26.35,-6271.72 -125.03,-415.58 -281.12,-1149.57 405.79,-1171.05 618.82,-19.36 1472.92,1638.44 1769.87,2171.43 1054.48,1892.76 1652.94,4655.81 2386.17,6769.53 687.2,1981.06 1622.14,4146.38 2449.09,6085.15 862.44,2021.99 1747.2,3898.89 2703.04,5874.52 525.09,1085.3 967.2,2284.08 963.46,3501.32 -39.17,-1341.62 -618.99,-2606.22 -1245.78,-3770.79 -1765,-3279.33 -3326.79,-6673.82 -4841.47,-10074.85 -910.44,-2044.27 -1503.38,-4102.54 -2322.41,-6157.35 -172.36,-432.41 -389.26,-901.36 -637.95,-1365.8 215.2,1288.55 111.93,2502.38 -183.28,4163.73 -309.14,1739.74 -522.65,3327.49 -744.64,5076.28 -67.45,531.37 -128.08,1837.47 -504.05,2200.78 -462.68,447.11 -2059.51,360.11 -2744.38,344.75 -1358.05,-30.45 -2890.37,-227.14 -4190.49,-184.12 -644.22,21.32 -387.24,106.98 -1008.53,-75.01 -1953.68,-572.28 -5027.23,-320.09 -7073.72,-379.38 -1028.22,-29.8 -1294.2,-1266.55 -1526.92,-2060.26 -563.07,-1920.36 -1112.07,-4432.46 -1460.22,-6410.04 -42.47,-241.29 -140.35,-2289.22 -177.13,-3633.49 -1215.76,1972.47 -1918.32,5657.71 -2626.86,7466.99 -1276.74,3260.2 -2730.12,6542.78 -4069.3,9790.22 -541.92,1314.13 -1800.83,4204.63 -2080.58,5465.21zm12411.58 -12230.52c16.14,27.79 32,53.7 47.51,77.36 -4.59,-28.36 -21.73,-54.11 -47.51,-77.36z"/>
 </g>
</svg>
